<svg width="51" height="46" viewBox="0 0 51 46" fill="none" xmlns="http://www.w3.org/2000/svg">
<path d="M28.6597 22.6749L18.6432 12.6586M18.6432 12.6586L28.6597 2.64221M18.6432 12.6586H38.6759C41.3324 12.6586 43.8802 13.7139 45.7587 15.5923C47.637 17.4707 48.6923 20.0185 48.6923 22.6749C48.6923 25.3314 47.637 27.8792 45.7587 29.7577C43.8802 31.636 41.3324 32.6913 38.6759 32.6913H33.6678" stroke="white" stroke-width="4.49146" stroke-linecap="round" stroke-linejoin="round"/>
<mask id="path-2-inside-1_5_3" fill="white">
<path d="M8.99367 26.8375V45.5695H5.03326V30.5967H4.92349L0.63382 33.2859V29.7736L5.27107 26.8375H8.99367ZM20.7904 45.9812C19.2171 45.975 17.8634 45.5878 16.7293 44.8196C15.6012 44.0512 14.7323 42.9383 14.1225 41.4811C13.5189 40.0237 13.2201 38.2706 13.2262 36.2219C13.2262 34.1792 13.528 32.4383 14.1317 30.9991C14.7414 29.5602 15.6104 28.4656 16.7384 27.7156C17.8726 26.9595 19.2232 26.5815 20.7904 26.5815C22.3575 26.5815 23.7049 26.9595 24.8331 27.7156C25.9672 28.4718 26.8391 29.5694 27.4488 31.0084C28.0586 32.4413 28.3604 34.1792 28.3544 36.2219C28.3544 38.2768 28.0496 40.033 27.4398 41.4901C26.8361 42.9475 25.9702 44.0604 24.8421 44.8286C23.7142 45.597 22.3635 45.9812 20.7904 45.9812ZM20.7904 42.6975C21.8636 42.6975 22.7202 42.1579 23.3604 41.0787C24.0007 39.9993 24.3177 38.3805 24.3117 36.2219C24.3117 34.8012 24.1653 33.6181 23.8726 32.6731C23.586 31.7278 23.1776 31.0176 22.647 30.542C22.1226 30.0663 21.5036 29.8285 20.7904 29.8285C19.7232 29.8285 18.8695 30.3621 18.2293 31.429C17.589 32.4962 17.2659 34.0938 17.2598 36.2219C17.2598 37.6608 17.4031 38.8621 17.6896 39.8256C17.9823 40.7829 18.3939 41.5024 18.9244 41.984C19.4549 42.4596 20.0769 42.6975 20.7904 42.6975Z"/>
</mask>
<path d="M8.99367 26.8375V45.5695H5.03326V30.5967H4.92349L0.63382 33.2859V29.7736L5.27107 26.8375H8.99367ZM20.7904 45.9812C19.2171 45.975 17.8634 45.5878 16.7293 44.8196C15.6012 44.0512 14.7323 42.9383 14.1225 41.4811C13.5189 40.0237 13.2201 38.2706 13.2262 36.2219C13.2262 34.1792 13.528 32.4383 14.1317 30.9991C14.7414 29.5602 15.6104 28.4656 16.7384 27.7156C17.8726 26.9595 19.2232 26.5815 20.7904 26.5815C22.3575 26.5815 23.7049 26.9595 24.8331 27.7156C25.9672 28.4718 26.8391 29.5694 27.4488 31.0084C28.0586 32.4413 28.3604 34.1792 28.3544 36.2219C28.3544 38.2768 28.0496 40.033 27.4398 41.4901C26.8361 42.9475 25.9702 44.0604 24.8421 44.8286C23.7142 45.597 22.3635 45.9812 20.7904 45.9812ZM20.7904 42.6975C21.8636 42.6975 22.7202 42.1579 23.3604 41.0787C24.0007 39.9993 24.3177 38.3805 24.3117 36.2219C24.3117 34.8012 24.1653 33.6181 23.8726 32.6731C23.586 31.7278 23.1776 31.0176 22.647 30.542C22.1226 30.0663 21.5036 29.8285 20.7904 29.8285C19.7232 29.8285 18.8695 30.3621 18.2293 31.429C17.589 32.4962 17.2659 34.0938 17.2598 36.2219C17.2598 37.6608 17.4031 38.8621 17.6896 39.8256C17.9823 40.7829 18.3939 41.5024 18.9244 41.984C19.4549 42.4596 20.0769 42.6975 20.7904 42.6975Z" fill="white"/>
<path d="M8.99367 26.8375H13.4851V22.3461H8.99367V26.8375ZM8.99367 45.5695V50.061H13.4851V45.5695H8.99367ZM5.03326 45.5695H0.541794V50.061H5.03326V45.5695ZM5.03326 30.5967H9.52472V26.1052H5.03326V30.5967ZM4.92349 30.5967V26.1052H3.63204L2.53783 26.7912L4.92349 30.5967ZM0.63382 33.2859H-3.85764V41.4026L3.01948 37.0914L0.63382 33.2859ZM0.63382 29.7736L-1.76881 25.9787L-3.85764 27.3013V29.7736H0.63382ZM5.27107 26.8375V22.3461H3.96876L2.86844 23.0427L5.27107 26.8375ZM20.7904 45.9812L20.7726 50.4726L20.7815 50.4726H20.7904V45.9812ZM16.7293 44.8196L14.2007 48.5317L14.2105 48.5383L16.7293 44.8196ZM14.1225 41.4811L9.97296 43.1999L9.97607 43.2074L9.97921 43.2149L14.1225 41.4811ZM13.2262 36.2219L17.7177 36.2352V36.2219H13.2262ZM14.1317 30.9991L9.99621 29.2467L9.99301 29.2542L9.98984 29.2618L14.1317 30.9991ZM16.7384 27.7156L19.225 31.456L19.23 31.4527L16.7384 27.7156ZM24.8331 27.7156L22.3323 31.4465L22.3415 31.4526L24.8331 27.7156ZM27.4488 31.0084L23.3134 32.7609L23.316 32.7671L27.4488 31.0084ZM28.3544 36.2219L23.8629 36.2087V36.2219H28.3544ZM27.4398 41.4901L23.2965 39.7563L23.2934 39.7637L23.2904 39.7711L27.4398 41.4901ZM24.8421 44.8286L22.3141 41.1161L22.3133 41.1166L24.8421 44.8286ZM23.3604 41.0787L27.2233 43.3704L27.2235 43.3701L23.3604 41.0787ZM24.3117 36.2219H19.8202L19.8203 36.2344L24.3117 36.2219ZM23.8726 32.6731L19.5743 33.976L19.5782 33.9891L19.5823 34.0022L23.8726 32.6731ZM22.647 30.542L19.6294 33.8687L19.6391 33.8775L19.649 33.8863L22.647 30.542ZM18.2293 31.429L14.378 29.118L14.3778 29.1184L18.2293 31.429ZM17.2598 36.2219L12.7683 36.209V36.2219H17.2598ZM17.6896 39.8256L13.3846 41.1061L13.3895 41.1225L13.3945 41.1389L17.6896 39.8256ZM18.9244 41.984L15.9053 45.3094L15.9157 45.3188L15.9261 45.3282L18.9244 41.984ZM8.99367 26.8375H4.5022V45.5695H8.99367H13.4851V26.8375H8.99367ZM8.99367 45.5695V41.078H5.03326V45.5695V50.061H8.99367V45.5695ZM5.03326 45.5695H9.52472V30.5967H5.03326H0.541794V45.5695H5.03326ZM5.03326 30.5967V26.1052H4.92349V30.5967V35.0881H5.03326V30.5967ZM4.92349 30.5967L2.53783 26.7912L-1.75184 29.4804L0.63382 33.2859L3.01948 37.0914L7.30915 34.4022L4.92349 30.5967ZM0.63382 33.2859H5.12528V29.7736H0.63382H-3.85764V33.2859H0.63382ZM0.63382 29.7736L3.03645 33.5684L7.67371 30.6324L5.27107 26.8375L2.86844 23.0427L-1.76881 25.9787L0.63382 29.7736ZM5.27107 26.8375V31.329H8.99367V26.8375V22.3461H5.27107V26.8375ZM20.7904 45.9812L20.8082 41.4898C19.9904 41.4865 19.5384 41.2975 19.248 41.1008L16.7293 44.8196L14.2105 48.5383C16.1885 49.878 18.4438 50.4634 20.7726 50.4726L20.7904 45.9812ZM16.7293 44.8196L19.2578 41.1075C18.9557 40.9017 18.5942 40.5319 18.2659 39.7473L14.1225 41.4811L9.97921 43.2149C10.8704 45.3446 12.2467 47.2007 14.2007 48.5317L16.7293 44.8196ZM14.1225 41.4811L18.2721 39.7623C17.9528 38.9915 17.7128 37.8591 17.7176 36.2352L13.2262 36.2219L8.73475 36.2085C8.72739 38.6821 9.08493 41.056 9.97296 43.1999L14.1225 41.4811ZM13.2262 36.2219H17.7177C17.7177 34.6003 17.96 33.484 18.2735 32.7365L14.1317 30.9991L9.98984 29.2618C9.09606 31.3925 8.73473 33.758 8.73473 36.2219H13.2262ZM14.1317 30.9991L18.2672 32.7516C18.588 31.9944 18.9371 31.6474 19.225 31.456L16.7384 27.7156L14.2518 23.9753C12.2836 25.2838 10.8949 27.126 9.99621 29.2467L14.1317 30.9991ZM16.7384 27.7156L19.23 31.4527C19.5202 31.2591 19.9733 31.0729 20.7904 31.0729V26.5815V22.09C18.4731 22.09 16.2249 22.6598 14.2469 23.9786L16.7384 27.7156ZM20.7904 26.5815V31.0729C21.6079 31.0729 22.053 31.2593 22.3323 31.4465L24.8331 27.7156L27.3338 23.9847C25.3569 22.6596 23.107 22.09 20.7904 22.09V26.5815ZM24.8331 27.7156L22.3415 31.4526C22.6427 31.6534 22.9943 32.0079 23.3134 32.7609L27.4488 31.0084L31.5843 29.2559C30.6838 27.131 29.2917 25.2901 27.3246 23.9786L24.8331 27.7156ZM27.4488 31.0084L23.316 32.7671C23.6255 33.4943 23.8677 34.5938 23.863 36.2087L28.3544 36.2219L32.8458 36.2351C32.8531 33.7645 32.4918 31.3882 31.5817 29.2496L27.4488 31.0084ZM28.3544 36.2219H23.8629C23.8629 37.8526 23.6186 38.9867 23.2965 39.7563L27.4398 41.4901L31.5831 43.224C32.4807 41.0792 32.8459 38.7011 32.8459 36.2219H28.3544ZM27.4398 41.4901L23.2904 39.7711C22.9678 40.5496 22.6115 40.9136 22.3141 41.1161L24.8421 44.8286L27.3701 48.5411C29.3289 47.2072 30.7043 45.3454 31.5893 43.2092L27.4398 41.4901ZM24.8421 44.8286L22.3133 41.1166C22.0402 41.3027 21.6033 41.4897 20.7904 41.4897V45.9812V50.4726C23.1236 50.4726 25.3882 49.8913 27.3709 48.5405L24.8421 44.8286ZM20.7904 42.6975V47.1889C23.7434 47.1889 25.9362 45.5397 27.2233 43.3704L23.3604 41.0787L19.4976 38.787C19.4554 38.8582 19.5428 38.6821 19.844 38.4924C20.1761 38.2832 20.533 38.206 20.7904 38.206V42.6975ZM23.3604 41.0787L27.2235 43.3701C28.4775 41.2558 28.81 38.6664 28.8032 36.2094L24.3117 36.2219L19.8203 36.2344C19.8227 37.1042 19.7585 37.7432 19.6707 38.1917C19.5816 38.6469 19.488 38.8033 19.4974 38.7873L23.3604 41.0787ZM24.3117 36.2219H28.8032C28.8032 34.5293 28.6332 32.8622 28.1629 31.344L23.8726 32.6731L19.5823 34.0022C19.6975 34.3741 19.8203 35.0731 19.8203 36.2219H24.3117ZM23.8726 32.6731L28.1709 31.3701C27.7341 29.9291 26.9802 28.3944 25.645 27.1976L22.647 30.542L19.649 33.8863C19.5102 33.762 19.4564 33.6682 19.4578 33.6705C19.4587 33.6721 19.472 33.6956 19.4935 33.7468C19.515 33.798 19.543 33.8731 19.5743 33.976L23.8726 32.6731ZM22.647 30.542L25.6646 27.2152C24.3068 25.9836 22.6096 25.337 20.7904 25.337V29.8285V34.32C20.6382 34.32 20.421 34.2926 20.1785 34.1995C19.9354 34.1061 19.7505 33.9786 19.6294 33.8687L22.647 30.542ZM20.7904 29.8285V25.337C17.8584 25.337 15.6704 26.9642 14.378 29.118L18.2293 31.429L22.0805 33.7401C22.1202 33.674 22.0305 33.8497 21.7301 34.0375C21.3997 34.244 21.0458 34.32 20.7904 34.32V29.8285ZM18.2293 31.429L14.3778 29.1184C13.1211 31.213 12.7753 33.7768 12.7683 36.209L17.2598 36.2219L21.7512 36.2347C21.7537 35.3815 21.8204 34.756 21.909 34.3181C21.9988 33.8741 22.091 33.7226 22.0808 33.7397L18.2293 31.429ZM17.2598 36.2219H12.7683C12.7683 37.9242 12.9338 39.5905 13.3846 41.1061L17.6896 39.8256L21.9947 38.5451C21.8723 38.1337 21.7512 37.3974 21.7512 36.2219H17.2598ZM17.6896 39.8256L13.3945 41.1389C13.8341 42.5767 14.5841 44.1098 15.9053 45.3094L18.9244 41.984L21.9436 38.6586C22.0769 38.7797 22.1242 38.8665 22.1164 38.8529C22.1066 38.8356 22.0529 38.735 21.9848 38.5123L17.6896 39.8256ZM18.9244 41.984L15.9261 45.3282C17.2818 46.5437 18.9719 47.1889 20.7904 47.1889V42.6975V38.206C20.9424 38.206 21.1561 38.2333 21.3929 38.3238C21.6297 38.4144 21.808 38.537 21.9227 38.6399L18.9244 41.984Z" fill="white" mask="url(#path-2-inside-1_5_3)"/>
</svg>
