<svg width="54" height="46" viewBox="0 0 54 46" fill="none" xmlns="http://www.w3.org/2000/svg">
<path d="M22.9551 22.6749L32.9716 12.6586M32.9716 12.6586L22.9551 2.64221M32.9716 12.6586H12.9388C10.2823 12.6586 7.73456 13.7139 5.85614 15.5923C3.9777 17.4708 2.92239 20.0186 2.92239 22.6749C2.92239 25.3315 3.9777 27.8792 5.85614 29.7577C7.73456 31.636 10.2823 32.6914 12.9388 32.6914H17.947" stroke="white" stroke-width="4.49146" stroke-linecap="round" stroke-linejoin="round"/>
<mask id="path-2-inside-1_5_2" fill="white">
<path d="M34.0538 26.8375V45.5695H30.0934V30.5966H29.9837L25.6939 33.2858V29.7735L30.3312 26.8375H34.0538ZM45.8505 45.9812C44.2772 45.975 42.9235 45.5878 41.7894 44.8196C40.6612 44.0512 39.7924 42.9383 39.1826 41.4811C38.579 40.0237 38.2803 38.2706 38.2863 36.2218C38.2863 34.1791 38.588 32.4382 39.1918 30.9991C39.8016 29.5602 40.6705 28.4655 41.7986 27.7156C42.9327 26.9594 44.2832 26.5814 45.8505 26.5814C47.4176 26.5814 48.7651 26.9594 49.8932 27.7156C51.0273 28.4717 51.8992 29.5694 52.509 31.0083C53.1188 32.4412 53.4205 34.1791 53.4145 36.2218C53.4145 38.2768 53.1097 40.0329 52.5 41.4901C51.8962 42.9475 51.0303 44.0604 49.9022 44.8286C48.7743 45.597 47.4236 45.9812 45.8505 45.9812ZM45.8505 42.6974C46.9237 42.6974 47.7803 42.1578 48.4206 41.0787C49.0608 39.9992 49.3779 38.3805 49.3718 36.2218C49.3718 34.8012 49.2255 33.6181 48.9327 32.673C48.6462 31.7278 48.2377 31.0175 47.7071 30.5419C47.1828 30.0663 46.5637 29.8284 45.8505 29.8284C44.7833 29.8284 43.9297 30.362 43.2895 31.429C42.6492 32.4962 42.3259 34.0937 42.3199 36.2218C42.3199 37.6608 42.4631 38.8621 42.7499 39.8256C43.0424 40.7829 43.4541 41.5023 43.9845 41.984C44.515 42.4596 45.1371 42.6974 45.8505 42.6974Z"/>
</mask>
<path d="M34.0538 26.8375V45.5695H30.0934V30.5966H29.9837L25.6939 33.2858V29.7735L30.3312 26.8375H34.0538ZM45.8505 45.9812C44.2772 45.975 42.9235 45.5878 41.7894 44.8196C40.6612 44.0512 39.7924 42.9383 39.1826 41.4811C38.579 40.0237 38.2803 38.2706 38.2863 36.2218C38.2863 34.1791 38.588 32.4382 39.1918 30.9991C39.8016 29.5602 40.6705 28.4655 41.7986 27.7156C42.9327 26.9594 44.2832 26.5814 45.8505 26.5814C47.4176 26.5814 48.7651 26.9594 49.8932 27.7156C51.0273 28.4717 51.8992 29.5694 52.509 31.0083C53.1188 32.4412 53.4205 34.1791 53.4145 36.2218C53.4145 38.2768 53.1097 40.0329 52.5 41.4901C51.8962 42.9475 51.0303 44.0604 49.9022 44.8286C48.7743 45.597 47.4236 45.9812 45.8505 45.9812ZM45.8505 42.6974C46.9237 42.6974 47.7803 42.1578 48.4206 41.0787C49.0608 39.9992 49.3779 38.3805 49.3718 36.2218C49.3718 34.8012 49.2255 33.6181 48.9327 32.673C48.6462 31.7278 48.2377 31.0175 47.7071 30.5419C47.1828 30.0663 46.5637 29.8284 45.8505 29.8284C44.7833 29.8284 43.9297 30.362 43.2895 31.429C42.6492 32.4962 42.3259 34.0937 42.3199 36.2218C42.3199 37.6608 42.4631 38.8621 42.7499 39.8256C43.0424 40.7829 43.4541 41.5023 43.9845 41.984C44.515 42.4596 45.1371 42.6974 45.8505 42.6974Z" fill="white"/>
<path d="M34.0538 26.8375H38.5453V22.346H34.0538V26.8375ZM34.0538 45.5695V50.061H38.5453V45.5695H34.0538ZM30.0934 45.5695H25.6019V50.061H30.0934V45.5695ZM30.0934 30.5966H34.5848V26.1052H30.0934V30.5966ZM29.9837 30.5966V26.1052H28.6922L27.598 26.7911L29.9837 30.5966ZM25.6939 33.2858H21.2025V41.4025L28.0796 37.0913L25.6939 33.2858ZM25.6939 29.7735L23.2913 25.9787L21.2025 27.3012V29.7735H25.6939ZM30.3312 26.8375V22.346H29.0289L27.9285 23.0427L30.3312 26.8375ZM45.8505 45.9812L45.8327 50.4726L45.8416 50.4726H45.8505V45.9812ZM41.7894 44.8196L39.2609 48.5317L39.2706 48.5383L41.7894 44.8196ZM39.1826 41.4811L35.0329 43.1996L35.0361 43.2073L35.0393 43.215L39.1826 41.4811ZM38.2863 36.2218L42.7777 36.235V36.2218H38.2863ZM39.1918 30.9991L35.0564 29.2466L35.0532 29.254L35.0501 29.2615L39.1918 30.9991ZM41.7986 27.7156L44.2851 31.456L44.2902 31.4526L41.7986 27.7156ZM49.8932 27.7156L47.3924 31.4465L47.4016 31.4526L49.8932 27.7156ZM52.509 31.0083L48.3735 32.7608L48.3762 32.767L52.509 31.0083ZM53.4145 36.2218L48.9231 36.2086V36.2218H53.4145ZM52.5 41.4901L48.3567 39.7563L48.3536 39.7636L48.3505 39.771L52.5 41.4901ZM49.9022 44.8286L47.3742 41.1161L47.3734 41.1166L49.9022 44.8286ZM48.4206 41.0787L52.2834 43.3704L52.2836 43.37L48.4206 41.0787ZM49.3718 36.2218H44.8804L44.8804 36.2343L49.3718 36.2218ZM48.9327 32.673L44.6344 33.976L44.6383 33.9891L44.6424 34.0021L48.9327 32.673ZM47.7071 30.5419L44.6895 33.8686L44.6993 33.8775L44.7091 33.8863L47.7071 30.5419ZM43.2895 31.429L39.4382 29.1179L39.438 29.1183L43.2895 31.429ZM42.3199 36.2218L37.8285 36.2092V36.2218H42.3199ZM42.7499 39.8256L38.445 41.1068L38.4497 41.1226L38.4545 41.1383L42.7499 39.8256ZM43.9845 41.984L40.9649 45.309L40.9756 45.3187L40.9864 45.3284L43.9845 41.984ZM34.0538 26.8375H29.5624V45.5695H34.0538H38.5453V26.8375H34.0538ZM34.0538 45.5695V41.078H30.0934V45.5695V50.061H34.0538V45.5695ZM30.0934 45.5695H34.5848V30.5966H30.0934H25.6019V45.5695H30.0934ZM30.0934 30.5966V26.1052H29.9837V30.5966V35.0881H30.0934V30.5966ZM29.9837 30.5966L27.598 26.7911L23.3083 29.4803L25.6939 33.2858L28.0796 37.0913L32.3693 34.4022L29.9837 30.5966ZM25.6939 33.2858H30.1854V29.7735H25.6939H21.2025V33.2858H25.6939ZM25.6939 29.7735L28.0966 33.5683L32.7338 30.6323L30.3312 26.8375L27.9285 23.0427L23.2913 25.9787L25.6939 29.7735ZM30.3312 26.8375V31.3289H34.0538V26.8375V22.346H30.3312V26.8375ZM45.8505 45.9812L45.8683 41.4898C45.0505 41.4865 44.5985 41.2975 44.3082 41.1008L41.7894 44.8196L39.2706 48.5383C41.2485 49.878 43.5039 50.4634 45.8327 50.4726L45.8505 45.9812ZM41.7894 44.8196L44.3178 41.1074C44.0158 40.9017 43.6543 40.532 43.3259 39.7472L39.1826 41.4811L35.0393 43.215C35.9304 45.3445 37.3066 47.2006 39.2609 48.5317L41.7894 44.8196ZM39.1826 41.4811L43.3323 39.7626C43.013 38.9915 42.7729 37.859 42.7777 36.235L38.2863 36.2218L33.7948 36.2087C33.7876 38.6821 34.1451 41.0559 35.0329 43.1996L39.1826 41.4811ZM38.2863 36.2218H42.7777C42.7777 34.6002 43.02 33.484 43.3336 32.7367L39.1918 30.9991L35.0501 29.2615C34.1561 31.3925 33.7948 33.7581 33.7948 36.2218H38.2863ZM39.1918 30.9991L43.3273 32.7516C43.6482 31.9943 43.9973 31.6473 44.2851 31.456L41.7986 27.7156L39.3121 23.9752C37.3436 25.2837 35.955 27.126 35.0564 29.2466L39.1918 30.9991ZM41.7986 27.7156L44.2902 31.4526C44.5804 31.2591 45.0333 31.0729 45.8505 31.0729V26.5814V22.09C43.5331 22.09 41.2851 22.6597 39.307 23.9785L41.7986 27.7156ZM45.8505 26.5814V31.0729C46.668 31.0729 47.1131 31.2592 47.3924 31.4464L49.8932 27.7156L52.3939 23.9847C50.417 22.6596 48.1671 22.09 45.8505 22.09V26.5814ZM49.8932 27.7156L47.4016 31.4526C47.7028 31.6534 48.0544 32.0078 48.3735 32.7608L52.509 31.0083L56.6444 29.2558C55.744 27.131 54.3519 25.2901 52.3848 23.9785L49.8932 27.7156ZM52.509 31.0083L48.3762 32.767C48.6856 33.4943 48.9278 34.5938 48.9231 36.2086L53.4145 36.2218L57.906 36.2351C57.9132 33.7645 57.5519 31.3882 56.6418 29.2496L52.509 31.0083ZM53.4145 36.2218H48.9231C48.9231 37.8525 48.6787 38.9867 48.3567 39.7563L52.5 41.4901L56.6433 43.224C57.5408 41.0792 57.906 38.701 57.906 36.2218H53.4145ZM52.5 41.4901L48.3505 39.771C48.0279 40.5496 47.6716 40.9136 47.3742 41.1161L49.9022 44.8286L52.4302 48.5411C54.3891 47.2072 55.7644 45.3454 56.6494 43.2092L52.5 41.4901ZM49.9022 44.8286L47.3734 41.1166C47.1003 41.3027 46.6634 41.4897 45.8505 41.4897V45.9812V50.4726C48.1837 50.4726 50.4483 49.8912 52.431 48.5405L49.9022 44.8286ZM45.8505 42.6974V47.1889C48.8035 47.1889 50.9963 45.5397 52.2834 43.3704L48.4206 41.0787L44.5578 38.7869C44.5155 38.8582 44.6029 38.682 44.9041 38.4924C45.2362 38.2831 45.5931 38.206 45.8505 38.206V42.6974ZM48.4206 41.0787L52.2836 43.37C53.5377 41.2558 53.8701 38.6664 53.8633 36.2093L49.3718 36.2218L44.8804 36.2343C44.8828 37.1041 44.8187 37.7432 44.7308 38.1917C44.6417 38.6468 44.5481 38.8033 44.5576 38.7873L48.4206 41.0787ZM49.3718 36.2218H53.8633C53.8633 34.5293 53.6933 32.8621 53.223 31.3439L48.9327 32.673L44.6424 34.0021C44.7576 34.3741 44.8804 35.073 44.8804 36.2218H49.3718ZM48.9327 32.673L53.231 31.3701C52.7942 29.9291 52.0403 28.3944 50.7052 27.1975L47.7071 30.5419L44.7091 33.8863C44.5703 33.7619 44.5165 33.6681 44.5179 33.6705C44.5188 33.6721 44.5321 33.6955 44.5536 33.7467C44.5751 33.798 44.6032 33.873 44.6344 33.976L48.9327 32.673ZM47.7071 30.5419L50.7247 27.2152C49.367 25.9836 47.6697 25.337 45.8505 25.337V29.8284V34.3199C45.6984 34.3199 45.4811 34.2926 45.2386 34.1994C44.9955 34.106 44.8106 33.9785 44.6895 33.8686L47.7071 30.5419ZM45.8505 29.8284V25.337C42.9184 25.337 40.7305 26.9643 39.4382 29.1179L43.2895 31.429L47.1407 33.7401C47.1804 33.6739 47.0908 33.8496 46.7903 34.0374C46.4599 34.2439 46.1059 34.3199 45.8505 34.3199V29.8284ZM43.2895 31.429L39.438 29.1183C38.1813 31.2129 37.8354 33.7766 37.8285 36.2092L42.3199 36.2218L46.8114 36.2345C46.8138 35.3814 46.8806 34.7559 46.9691 34.3181C47.059 33.8741 47.1512 33.7227 47.1409 33.7397L43.2895 31.429ZM42.3199 36.2218H37.8285C37.8285 37.9237 37.9937 39.5905 38.445 41.1068L42.7499 39.8256L47.0547 38.5444C46.9325 38.1337 46.8114 37.3978 46.8114 36.2218H42.3199ZM42.7499 39.8256L38.4545 41.1383C38.8941 42.5769 39.6443 44.1097 40.9649 45.309L43.9845 41.984L47.004 38.659C47.1371 38.7799 47.1844 38.8666 47.1766 38.853C47.1668 38.8357 47.1132 38.7353 47.0452 38.5129L42.7499 39.8256ZM43.9845 41.984L40.9864 45.3284C42.3421 46.5437 44.0321 47.1889 45.8505 47.1889V42.6974V38.206C46.0026 38.206 46.2162 38.2333 46.4529 38.3238C46.6896 38.4143 46.8679 38.5368 46.9825 38.6396L43.9845 41.984Z" fill="white" mask="url(#path-2-inside-1_5_2)"/>
</svg>
